<svg xmlns="http://www.w3.org/2000/svg" xmlns:xlink="http://www.w3.org/1999/xlink" width="50" zoomAndPan="magnify" viewBox="0 0 37.5 37.499999" height="50" preserveAspectRatio="xMidYMid meet" version="1.0"><defs><clipPath id="58b452b431"><path d="M 0 0 L 37.007812 0 L 37.007812 37.007812 L 0 37.007812 Z M 0 0 " clip-rule="nonzero"/></clipPath></defs><g clip-path="url(#58b452b431)"><path fill="#024AD8" d="M 30.078125 28.136719 C 30.050781 30.1875 29.117188 31.144531 27.082031 31.15625 C 24.457031 31.171875 21.828125 31.160156 19.199219 31.160156 C 16.148438 31.160156 13.097656 31.167969 10.042969 31.15625 C 7.863281 31.148438 6.941406 30.214844 6.929688 28.042969 C 6.925781 27.332031 6.964844 26.621094 6.921875 25.914062 C 6.824219 24.339844 7.632812 23.328125 8.96875 22.753906 C 10.496094 22.09375 12.066406 21.523438 13.644531 20.996094 C 14.992188 20.550781 15.40625 20.75 16.242188 21.917969 C 16.957031 22.925781 17.679688 23.925781 18.507812 25.078125 C 19.292969 23.976562 19.976562 23.027344 20.644531 22.074219 C 21.429688 20.953125 22.222656 20.589844 23.460938 21.007812 C 25.039062 21.539062 26.597656 22.132812 28.125 22.800781 C 29.433594 23.367188 30.171875 24.386719 30.085938 25.902344 C 30.046875 26.644531 30.085938 27.390625 30.078125 28.136719 Z M 15.617188 18.015625 C 13.371094 15.820312 12.664062 13.035156 13.011719 10.023438 C 13.191406 8.449219 14.152344 7.207031 15.765625 6.679688 C 18.164062 5.894531 20.488281 5.820312 22.597656 7.496094 C 23.832031 8.472656 24.113281 9.816406 24.070312 11.972656 C 23.925781 13.824219 23.339844 16.191406 21.398438 18.015625 C 19.753906 19.558594 17.238281 19.597656 15.617188 18.015625 Z M 10.066406 10.804688 C 10.128906 10.570312 10.289062 10.382812 10.511719 10.261719 C 9.914062 4.828125 17.582031 0.660156 23.132812 4.183594 C 23.769531 4.59375 24.332031 5.0625 24.769531 5.570312 C 25.234375 6.066406 25.5625 6.605469 25.828125 7.109375 C 26.078125 7.621094 26.242188 8.113281 26.351562 8.550781 C 26.472656 9.082031 26.542969 9.734375 26.496094 10.261719 C 26.71875 10.378906 26.878906 10.570312 26.945312 10.808594 C 28.257812 10.832031 29.3125 11.808594 29.3125 13.011719 C 29.3125 14.21875 28.257812 15.195312 26.945312 15.21875 C 26.875 15.464844 26.703125 15.667969 26.464844 15.78125 L 26.464844 16 C 26.464844 16.265625 26.398438 16.523438 26.277344 16.757812 C 24.984375 19.226562 24.183594 19.667969 21.738281 20.414062 C 21.289062 20.550781 20.820312 20.617188 20.359375 20.726562 C 20.042969 21.777344 18.40625 21.535156 18.40625 20.488281 C 18.40625 19.65625 19.515625 19.25 20.140625 19.871094 C 20.820312 19.703125 21.496094 19.621094 22.089844 19.429688 C 23.988281 18.824219 24.070312 18.625 25.324219 16.667969 C 25.441406 16.488281 25.5 16.277344 25.5 16.0625 L 25.5 15.726562 C 25.246094 15.566406 25.066406 15.3125 25.066406 15.007812 C 25.066406 11.128906 24.863281 10.765625 25.433594 10.34375 C 25.171875 8.917969 24.371094 7.589844 23.386719 6.707031 C 22.5 5.839844 21.4375 5.300781 20.359375 4.980469 C 17.554688 4.355469 15 5.179688 13.53125 6.613281 C 12.53125 7.515625 11.816406 8.96875 11.574219 10.34375 C 11.792969 10.503906 11.941406 10.738281 11.941406 11.015625 L 11.941406 15.007812 C 11.941406 15.496094 11.511719 15.886719 10.980469 15.886719 C 10.53125 15.886719 10.171875 15.601562 10.066406 15.21875 C 8.75 15.195312 7.695312 14.21875 7.695312 13.011719 C 7.695312 11.804688 8.75 10.832031 10.066406 10.804688 Z M 18.503906 0 C 8.285156 0 0 8.285156 0 18.503906 C 0 28.722656 8.285156 37.007812 18.503906 37.007812 C 28.722656 37.007812 37.007812 28.722656 37.007812 18.503906 C 37.007812 8.285156 28.722656 0 18.503906 0 " fill-opacity="1" fill-rule="nonzero"/></g><!-- Code injected by live-server -->
<script>
	// <![CDATA[  <-- For SVG support
	if ('WebSocket' in window) {
		(function () {
			function refreshCSS() {
				var sheets = [].slice.call(document.getElementsByTagName("link"));
				var head = document.getElementsByTagName("head")[0];
				for (var i = 0; i < sheets.length; ++i) {
					var elem = sheets[i];
					var parent = elem.parentElement || head;
					parent.removeChild(elem);
					var rel = elem.rel;
					if (elem.href && typeof rel != "string" || rel.length == 0 || rel.toLowerCase() == "stylesheet") {
						var url = elem.href.replace(/(&|\?)_cacheOverride=\d+/, '');
						elem.href = url + (url.indexOf('?') >= 0 ? '&' : '?') + '_cacheOverride=' + (new Date().valueOf());
					}
					parent.appendChild(elem);
				}
			}
			var protocol = window.location.protocol === 'http:' ? 'ws://' : 'wss://';
			var address = protocol + window.location.host + window.location.pathname + '/ws';
			var socket = new WebSocket(address);
			socket.onmessage = function (msg) {
				if (msg.data == 'reload') window.location.reload();
				else if (msg.data == 'refreshcss') refreshCSS();
			};
			if (sessionStorage && !sessionStorage.getItem('IsThisFirstTime_Log_From_LiveServer')) {
				console.log('Live reload enabled.');
				sessionStorage.setItem('IsThisFirstTime_Log_From_LiveServer', true);
			}
		})();
	}
	else {
		console.error('Upgrade your browser. This Browser is NOT supported WebSocket for Live-Reloading.');
	}
	// ]]>
</script>
</svg>